<svg width="135" height="25" viewBox="0 0 135 25" fill="none" xmlns="http://www.w3.org/2000/svg">
<path d="M4.13402 14.1071C4.13402 14.6812 3.92643 15.1317 3.51127 15.4586C3.0961 15.7854 2.5234 15.9488 1.79317 15.9488C1.06295 15.9488 0.465224 15.8355 0 15.6087V14.6106C0.294446 14.749 0.606558 14.8579 0.936338 14.9374C1.26906 15.0169 1.57823 15.0567 1.86384 15.0567C2.28196 15.0567 2.58965 14.9772 2.78693 14.8182C2.98715 14.6592 3.08726 14.4457 3.08726 14.1777C3.08726 13.9363 2.99599 13.7317 2.81343 13.5638C2.63087 13.396 2.25398 13.1972 1.68276 12.9676C1.09387 12.7291 0.678698 12.4567 0.437252 12.1505C0.195806 11.8443 0.0750837 11.4762 0.0750837 11.0463C0.0750837 10.5075 0.266473 10.0835 0.649253 9.7743C1.03203 9.46513 1.54584 9.31055 2.19068 9.31055C2.80901 9.31055 3.4244 9.44599 4.03685 9.71688L3.70118 10.5781C3.12701 10.3367 2.61468 10.216 2.16418 10.216C1.82262 10.216 1.56351 10.2911 1.38684 10.4412C1.21017 10.5884 1.12184 10.7842 1.12184 11.0286C1.12184 11.1965 1.15717 11.3408 1.22784 11.4615C1.29851 11.5793 1.41481 11.6911 1.57676 11.7971C1.7387 11.9031 2.0302 12.043 2.45126 12.2167C2.92532 12.414 3.27277 12.598 3.4936 12.7688C3.71443 12.9396 3.87638 13.1325 3.97944 13.3474C4.08249 13.5623 4.13402 13.8156 4.13402 14.1071Z" fill="black" fill-opacity="0.85"/>
<path d="M9.03654 15.8605H5.38394V9.4033H9.03654V10.2955H6.43953V12.0533H8.87313V12.9366H6.43953V14.9639H9.03654V15.8605Z" fill="black" fill-opacity="0.85"/>
<path d="M13.1838 10.216C12.5773 10.216 12.1003 10.4309 11.7528 10.8608C11.4054 11.2907 11.2316 11.884 11.2316 12.6407C11.2316 13.4328 11.398 14.032 11.7307 14.4383C12.0664 14.8447 12.5508 15.0478 13.1838 15.0478C13.4576 15.0478 13.7226 15.0213 13.9788 14.9683C14.235 14.9124 14.5015 14.8417 14.7782 14.7563V15.6617C14.2718 15.8531 13.6976 15.9488 13.0557 15.9488C12.1106 15.9488 11.3847 15.6632 10.8783 15.092C10.3719 14.5178 10.1186 13.6978 10.1186 12.6319C10.1186 11.9606 10.2408 11.3731 10.4852 10.8696C10.7325 10.3661 11.0888 9.98041 11.5541 9.71247C12.0193 9.44452 12.5655 9.31055 13.1926 9.31055C13.8522 9.31055 14.4617 9.44894 15.0212 9.72572L14.6413 10.6046C14.4234 10.5016 14.1923 10.4118 13.9479 10.3352C13.7065 10.2557 13.4518 10.216 13.1838 10.216Z" fill="black" fill-opacity="0.85"/>
<path d="M21.231 9.4033V13.5815C21.231 14.0585 21.128 14.4766 20.9218 14.8358C20.7187 15.1921 20.4228 15.4674 20.0341 15.6617C19.6484 15.8531 19.1861 15.9488 18.6473 15.9488C17.8464 15.9488 17.2236 15.7368 16.779 15.3128C16.3344 14.8888 16.1121 14.3058 16.1121 13.5638V9.4033H17.1721V13.4887C17.1721 14.0217 17.2957 14.4148 17.5431 14.668C17.7904 14.9212 18.1702 15.0478 18.6826 15.0478C19.6778 15.0478 20.1754 14.5252 20.1754 13.4799V9.4033H21.231Z" fill="black" fill-opacity="0.85"/>
<path d="M23.9384 12.4066H24.6716C25.1633 12.4066 25.5196 12.3154 25.7405 12.1328C25.9613 11.9503 26.0717 11.6794 26.0717 11.3201C26.0717 10.955 25.9525 10.693 25.714 10.534C25.4755 10.375 25.1162 10.2955 24.6363 10.2955H23.9384V12.4066ZM23.9384 13.2811V15.8605H22.8829V9.4033H24.7069C25.5402 9.4033 26.1571 9.55935 26.5575 9.87147C26.958 10.1836 27.1582 10.6547 27.1582 11.2848C27.1582 12.0886 26.7401 12.6613 25.9039 13.0029L27.728 15.8605H26.5266L24.9808 13.2811H23.9384Z" fill="black" fill-opacity="0.85"/>
<path d="M32.3213 15.8605H28.6687V9.4033H32.3213V10.2955H29.7243V12.0533H32.1579V12.9366H29.7243V14.9639H32.3213V15.8605Z" fill="black" fill-opacity="0.85"/>
<path d="M38.9728 12.5701C38.9728 13.636 38.6769 14.4516 38.0851 15.0169C37.4933 15.5793 36.6408 15.8605 35.5278 15.8605H33.7214V9.4033H35.7178C36.7454 9.4033 37.5448 9.68008 38.116 10.2336C38.6872 10.7872 38.9728 11.566 38.9728 12.5701ZM37.8598 12.6054C37.8598 11.0596 37.137 10.2866 35.6912 10.2866H34.777V14.9727H35.5278C37.0825 14.9727 37.8598 14.1836 37.8598 12.6054Z" fill="black" fill-opacity="0.85"/>
<path d="M42.7491 9.4033H44.5732C45.43 9.4033 46.0499 9.53138 46.4326 9.78755C46.8154 10.0437 47.0068 10.4486 47.0068 11.0021C47.0068 11.3849 46.8993 11.7014 46.6844 11.9517C46.4724 12.1991 46.1617 12.3595 45.7525 12.4331V12.4773C46.733 12.6451 47.2232 13.1604 47.2232 14.0232C47.2232 14.6003 47.0274 15.0508 46.6358 15.3747C46.2471 15.6985 45.7024 15.8605 45.0016 15.8605H42.7491V9.4033ZM43.5 12.1681H44.7366C45.2666 12.1681 45.6479 12.0857 45.8805 11.9208C46.1132 11.753 46.2295 11.4718 46.2295 11.0772C46.2295 10.7151 46.0999 10.4545 45.8408 10.2955C45.5817 10.1335 45.1695 10.0526 44.6041 10.0526H43.5V12.1681ZM43.5 12.8041V15.2201H44.847C45.3682 15.2201 45.7598 15.12 46.0219 14.9197C46.2869 14.7166 46.4194 14.4 46.4194 13.9702C46.4194 13.5697 46.2839 13.2753 46.013 13.0868C45.7451 12.8984 45.3358 12.8041 44.7852 12.8041H43.5Z" fill="black" fill-opacity="0.85"/>
<path d="M50.2575 12.6319L51.98 9.4033H52.7927L50.6373 13.3562V15.8605H49.8776V13.3916L47.7267 9.4033H48.5482L50.2575 12.6319Z" fill="black" fill-opacity="0.85"/>
<path d="M96.4113 12.0352H96.7017L98.7814 9.3125L99.374 9.77585L97.3639 12.3132L99.7225 15.1518L99.13 15.65L96.6786 12.6722H96.4113V15.4994H95.6328V9.46288H96.4113V12.0352Z" fill="black"/>
<path d="M102.696 9.46289H103.475V14.8042H106.647V15.4994H102.696V9.46289Z" fill="black"/>
<path d="M109.519 9.46289H113.294V10.1581H110.297V11.9655H112.772V12.6606H110.297V14.8041H113.294V15.4993H109.519V9.46289Z" fill="black"/>
<path d="M117.327 9.46289H119.384C120.394 9.46289 121.196 9.93792 121.196 11.1082C121.196 11.8497 120.697 12.5796 119.965 12.7997L121.452 15.2446L120.778 15.6501L119.233 12.9156H118.106V15.4994H117.327V9.46289H117.327ZM119.128 12.2204C119.883 12.2204 120.383 11.7917 120.383 11.1081C120.383 10.5636 120.058 10.1581 119.36 10.1581H118.106V12.2204H119.128Z" fill="black"/>
<path d="M128.202 12.4868C128.202 12.9733 128.167 15.6034 126.053 15.6034C125.077 15.6034 123.903 14.9082 123.903 12.4868C123.903 10.0767 125.053 9.3584 126.053 9.3584C127.017 9.3584 128.202 10.0536 128.202 12.4868ZM124.717 12.4868C124.717 13.3673 124.879 14.8734 126.053 14.8734C127.226 14.8734 127.389 13.3673 127.389 12.4868C127.389 11.5945 127.226 10.0884 126.053 10.0884C124.879 10.0883 124.717 11.5945 124.717 12.4868Z" fill="black"/>
<path d="M131.759 13.5874C131.91 14.3289 132.27 14.8734 133.083 14.8734C133.722 14.8734 134.222 14.5259 134.222 13.8539C134.222 13.1123 133.594 12.927 133.002 12.6836C132.119 12.3129 131.282 12.0811 131.282 10.9457C131.282 9.9261 132.107 9.3584 133.06 9.3584C134.071 9.3584 134.663 9.9377 134.907 10.8762L134.164 11.0963C134.024 10.5054 133.711 10.0884 133.048 10.0884C132.549 10.0884 132.061 10.3432 132.061 10.8878C132.061 11.4555 132.409 11.6178 132.874 11.8263L134.164 12.394C134.71 12.6952 135 13.1819 135 13.8075C135 14.9546 134.199 15.6034 133.083 15.6034C131.956 15.6034 131.247 14.885 131.062 13.8075L131.759 13.5874Z" fill="black"/>
<path opacity="0.7" d="M84.7665 0.629772L70.6172 0L62.3789 10.2623L68.1515 23.9773L82.4423 24.84L90.577 13.3024L84.7665 0.629772Z" fill="#45464D"/>
<path d="M90.5775 13.3024L82.5173 5.15137L80.3975 20.7876L90.5775 13.3024Z" fill="#656569"/>
<path d="M67.8711 11.4691L82.5168 5.15137L80.3969 20.7876L67.8711 11.4691Z" fill="url(#paint0_linear)"/>
<path d="M82.5168 5.1514L70.6173 0L67.8711 11.4691L82.5168 5.1514Z" fill="url(#paint1_linear)"/>
<path d="M67.8711 11.4688L68.1516 23.9769L80.3969 20.7873L67.8711 11.4688Z" fill="url(#paint2_linear)"/>
<path d="M82.5177 5.1514L84.7674 0.629773L70.6182 0L82.5177 5.1514Z" fill="#757578"/>
<path d="M84.7663 0.629883L90.5768 13.3025L82.5166 5.1515L84.7663 0.629883Z" fill="#6C6D70"/>
<path d="M90.5775 13.3027L82.4428 24.8403L80.3975 20.7879L90.5775 13.3027Z" fill="#6C6D70"/>
<path d="M82.4431 24.8395L68.1523 23.9767L80.3977 20.7871L82.4431 24.8395Z" fill="#55565A"/>
<path d="M70.6172 0L62.3789 10.2623L67.871 11.4691L70.6172 0Z" fill="#55565A"/>
<path d="M62.3789 10.2627L68.1515 23.9777L67.871 11.4695L62.3789 10.2627Z" fill="#656569"/>
<path opacity="0.7" d="M81.0179 7.30469L79.5334 18.5143L70.7842 11.7655L81.0179 7.30469Z" fill="#151A22"/>
<path opacity="0.7" d="M79.8329 5.06983L71.6545 1.55664L69.9365 8.94328L79.8329 5.06983Z" fill="#151A22"/>
<path opacity="0.7" d="M77.7595 20.2129L68.8711 13.8809L69.0861 22.4611L77.7595 20.2129Z" fill="#23262E"/>
<path opacity="0.7" d="M89.0834 13.2744L83.0264 7.14258L81.4277 18.9339L89.0834 13.2744Z" fill="#23262E"/>
<path opacity="0.7" d="M79.8448 21.5918L81.1641 24.1097L72.3486 23.5466L79.8448 21.5918Z" fill="#43444B"/>
<path opacity="0.7" d="M87.8987 16.0566L81.3369 20.9335L82.6408 23.4756L87.8987 16.0566Z" fill="#34363D"/>
<path opacity="0.7" d="M84.796 2.40039L88.2654 9.82163L83.5215 5.01068L84.796 2.40039Z" fill="#34363D"/>
<path opacity="0.7" d="M83.2073 1.15083L81.7485 3.81206L74.877 0.813477L83.2073 1.15083Z" fill="#36383F"/>
<path opacity="0.7" d="M69.4501 2.3584L67.5163 10.5334L63.6152 9.70905L69.4501 2.3584Z" fill="#3B3C43"/>
<path opacity="0.7" d="M67.2802 11.9755L67.4505 20.7607L63.3604 11.1475L67.2802 11.9755Z" fill="#45464D"/>
<defs>
<linearGradient id="paint0_linear" x1="67.8711" y1="12.9695" x2="82.5168" y2="12.9695" gradientUnits="userSpaceOnUse">
<stop stop-color="#A3A2A5"/>
<stop offset="0.2705" stop-color="#9F9EA0"/>
<stop offset="0.5607" stop-color="#929194"/>
<stop offset="0.8592" stop-color="#7C7C80"/>
<stop offset="1" stop-color="#707073"/>
</linearGradient>
<linearGradient id="paint1_linear" x1="67.7743" y1="11.2596" x2="78.1519" y2="0.953559" gradientUnits="userSpaceOnUse">
<stop stop-color="#969598"/>
<stop offset="0.3396" stop-color="#908F92"/>
<stop offset="0.7917" stop-color="#7F7F82"/>
<stop offset="1" stop-color="#757578"/>
</linearGradient>
<linearGradient id="paint2_linear" x1="68.5764" y1="11.1142" x2="74.1106" y2="22.1195" gradientUnits="userSpaceOnUse">
<stop stop-color="#9E9EA0"/>
<stop offset="0.2759" stop-color="#9B9B9D"/>
<stop offset="0.494" stop-color="#919194"/>
<stop offset="0.6923" stop-color="#808083"/>
<stop offset="0.8777" stop-color="#69696D"/>
<stop offset="1" stop-color="#55565A"/>
</linearGradient>
</defs>
</svg>
